<svg id="Layer_1" data-name="Layer 1" xmlns="http://www.w3.org/2000/svg" viewBox="0 0 441 3"><defs><style>.cls-1{fill:#33312f;fill-rule:evenodd;}</style></defs><path class="cls-1" d="M.57,2.57c.65,0,41.46-.11,64.75,0,23.08.12,24.6-.44,36,0s32.06.23,47,0c5.12-.07,27.31,0,33,0,.52,0,.37-2.44,0-2.44-6.76,0-38.95-.29-52,0-12.27.27-28-.36-46,0S43.71.3,27.41.08C15.26-.09,3.44,0,1.32.13-1,.22.44,2.57.57,2.57Z"/><path class="cls-1" d="M184.57,2.57c.65,0,41.46-.11,64.75,0,23.08.12,24.6-.44,36,0s32.06.23,47,0c5.12-.07,27.31,0,33,0,.52,0,.37-2.44,0-2.44-6.76,0-38.95-.29-52,0-12.27.27-28-.36-46,0s-39.61.17-55.91,0c-12.15-.17-24,0-26.09.05C183,.22,184.44,2.57,184.57,2.57Z"/><path class="cls-1" d="M368.22,2.57c.27,0,16.44-.11,25.67,0s9.75-.44,14.27,0,12.71.23,18.63,0c2-.07,10.82,0,13.08,0a5.9,5.9,0,0,0,0-2.44c-2.68,0-15.44-.29-20.61,0-4.87.27-11.1-.36-18.23,0s-15.7.17-22.17,0c-4.81-.17-9.5,0-10.34.05S368.18,2.57,368.22,2.57Z"/></svg>