<svg xmlns="http://www.w3.org/2000/svg" viewBox="0 0 1247.59 304.98"><defs><style>.cls-1{fill:#fff;}</style></defs><g id="Layer_2" data-name="Layer 2"><g id="Layer_1-2" data-name="Layer 1"><rect x="537.04" width="8" height="304.98"/><path d="M672.83,45.21h13.23l3.9,62.05,5-62h15.39l4.92,62.05,4-62h12.82l-7.89,77.95H706.58l-4-57-4.11,57H680.83Z"/><path d="M735.26,116.8V51.57L743,45.21h18.77l7.69,6.36V116.8l-7.69,6.36H743Zm19.28-5.13,1.54-1.43V58.14l-1.54-1.44h-4.41l-1.54,1.44v52.1l1.54,1.43Z"/><path d="M794.76,123.16,789.53,94h-3.08v29.13H773.12V45.21h26l7.69,6.36v36.1l-4.82,4,5.74,31.49ZM786.45,82H792l1.54-1.43V58.44L792,57h-5.54Z"/><path d="M811.48,45.21h13.33V111H836.5v12.2h-25Z"/><path d="M839.61,45.21h26.15l7.69,6.36V116.8l-7.69,6.36H839.61Zm19,66.46,1.54-1.43V58.14l-1.54-1.44h-5.64v55Z"/><path d="M891.36,116.8V96h13.33v14.36l1.54,1.44h3.18l1.53-1.44v-19L909.41,90H898.84l-7.48-6.15V51.57l7.69-6.36h17.33l7.8,6.36V71.88H910.84V58L909.3,56.6h-3.07L904.69,58V76.49l1.54,1.34h10.56L924.28,84V116.8l-7.7,6.36H899.05Z"/><path d="M928.23,45.21h26.36V57.42h-13v20.2h11.28v12.1H941.56V111h13.23v12.2H928.23Z"/><path d="M980.13,123.16,974.89,94h-3.07v29.13H958.48V45.21h26l7.7,6.36v36.1l-4.82,4,5.74,31.49ZM971.82,82h5.54l1.53-1.43V58.44L977.36,57h-5.54Z"/><path d="M996.84,45.21h13.34v77.95H996.84Z"/><path d="M1014.79,45.21h26.36V57.42h-13v20.2h11.28v12.1h-11.28V111h13.23v12.2h-26.57Z"/><path d="M1045,116.8V96h13.33v14.36l1.54,1.44H1063l1.54-1.44v-19L1063,90h-10.56L1045,83.88V51.57l7.69-6.36H1070l7.8,6.36V71.88h-13.33V58l-1.54-1.43h-3.08L1058.28,58V76.49l1.54,1.34h10.57l7.48,6.15V116.8l-7.69,6.36h-17.54Z"/><path d="M1088.2,120.07V88.42l3.73-3.08H1101l3.73,3.08v31.65l-3.73,3.09h-9.11Zm9.35-2.48.75-.7V91.61l-.75-.7h-2.14l-.74.7v25.28l.74.7Z"/><path d="M1107.11,85.34h12.75v5.92h-6.28v10.1h5.53v5.92h-5.53v15.88h-6.47Z"/><polygon points="728.44 182.58 726.68 182.58 721.21 259.79 686.63 259.79 672.52 154.67 672.52 132.58 697.57 132.58 703.04 208.02 704.8 208.02 710.1 132.58 744.85 132.58 750.31 208.02 752.08 208.02 757.55 132.58 782.59 132.58 782.59 154.67 768.48 259.79 733.91 259.79 728.44 182.58"/><path d="M831,132.58H792.53l-16,105.83v21.38h26.46l2.11-24.73h13.41l2.12,24.73H847V238.41Zm-23.63,76,3.52-40.1h1.77l3.53,40.1Z"/><path d="M908.5,201.31c6.88-3,11.82-8.3,11.82-20.49V153.48h0c0-22.11-19.24-20.88-19.24-20.88v0H851.53V259.79h28.22V210.32h3L899,259.79h24.69V242Zm-16.4-15.72-1.77,1.76H879.75v-31.8h10.58l1.77,1.77Z"/><polygon points="927.4 237.06 927.4 260.01 996.18 260.01 996.18 233.54 959.15 233.54 996.18 155.89 996.18 132.95 927.4 132.95 927.4 159.42 964.44 159.42 927.4 237.06"/><polygon points="1207.55 132.95 1149.86 132.95 1149.86 260.01 1207.55 260.01 1207.55 233.54 1178.08 233.54 1178.08 209.02 1201.4 209.02 1204.46 182.54 1178.08 182.54 1178.08 159.42 1207.55 159.42 1207.55 132.95"/><polygon points="1119.39 260.01 1144.09 260.01 1144.09 132.95 1119.39 132.95 1119.39 188.36 1117.63 188.36 1099.99 132.95 1075.3 132.95 1075.3 260.01 1099.99 260.01 1099.99 204.59 1101.76 204.59 1119.39 260.01"/><path d="M1056.26,133H1015c-7.76,2.82-13.76,7.76-13.76,21.17v84.71c0,13.41,6,18.35,13.76,21.18h41.27c7.76-2.83,13.75-7.77,13.75-21.18V154.12C1070,140.71,1064,135.77,1056.26,133Zm-14.4,102.28-1.78,1.77h-8.9l-1.78-1.77V157.39l1.78-1.77h8.9l1.78,1.77Z"/><path d="M1224.7,245.71h-5.18v14.56h-4.15V245.71h-5.18v-3.24h14.51Zm12.61,8.47,4.45-11.71h5.83v17.8h-4v-13h-.09l-4.75,13h-3l-4.75-13H1231v13h-4v-17.8h5.87Z"/><rect x="537.01" y="133.04" width="214.58" height="38.93" transform="translate(491.79 796.8) rotate(-90)"/><polygon class="cls-1" points="630.78 184.1 630.78 192.64 657.9 192.64 657.9 178.91 652.47 178.91 652.47 184.1 630.78 184.1"/><path class="cls-1" d="M631.49,220a14.22,14.22,0,0,0-1.2,6.24,14.62,14.62,0,0,0,.77,4.93,8.17,8.17,0,0,0,2.13,3.36A5.71,5.71,0,0,0,636,236a29.52,29.52,0,0,0,4.39.24h7.91a16.93,16.93,0,0,0,6-.79,5.93,5.93,0,0,0,3.1-3.23,14.88,14.88,0,0,0,1.12-6.2,12.79,12.79,0,0,0-1.32-6.09,6.58,6.58,0,0,0-3.08-3.19,17.37,17.37,0,0,0-6-.72h-1.06v8.55h3.4a8.11,8.11,0,0,1,2.84.3,1.25,1.25,0,0,1,.6,1.25c0,.66-.2,1.09-.6,1.28a7.33,7.33,0,0,1-2.58.28H638.16a7.81,7.81,0,0,1-2.67-.28c-.42-.19-.62-.64-.62-1.34s.17-1,.51-1.21a7,7,0,0,1,2.56-.28h4.7V216h-2.57a15,15,0,0,0-5.59.77A6.27,6.27,0,0,0,631.49,220Z"/><path class="cls-1" d="M630.72,199v12.37l27.18,4.36v-8.85l-4.88-.51v-3.06l4.88-.46v-8.75Zm17.48,7.48q-3.62-.33-11.42-1.64,6.79-.66,11.42-1.31Z"/><polygon class="cls-1" points="630.78 168.33 630.78 176.87 657.9 176.87 657.9 163.14 652.47 163.14 652.47 168.33 630.78 168.33"/><path class="cls-1" d="M652.26,119.21v2.44H630.79v8.51h16a56.36,56.36,0,0,0,6-.2,5.27,5.27,0,0,0,2.73-1.32,7.87,7.87,0,0,0,2.09-3.35,15.18,15.18,0,0,0,.8-5.17,14.12,14.12,0,0,0-.67-4.6,7.52,7.52,0,0,0-2-3.14,5.46,5.46,0,0,0-2.56-1.43,26.34,26.34,0,0,0-4.33-.24H630.79v8.5Z"/><polygon class="cls-1" points="636.2 108.94 636.2 103.87 657.93 103.87 657.93 95.3 636.2 95.3 636.2 90.21 630.76 90.21 630.76 108.94 636.2 108.94"/><path class="cls-1" d="M630.77,76.77q6.39,1.67,10.76,2.37a96,96,0,0,0-10.76,2.07V89l17.43-6h9.89V75.15H648.2l-17.43-6.21Z"/><path class="cls-1" d="M635.19,133.5a4.57,4.57,0,0,0-2.39,1.42,6.8,6.8,0,0,0-1.54,3.33,48.45,48.45,0,0,0-.47,8.39v6.41h27.13v-10.8a28.47,28.47,0,0,0-.28-4.6,6.65,6.65,0,0,0-1-2.56,3.68,3.68,0,0,0-1.93-1.46,18.14,18.14,0,0,0-4.88-.42h-9.5A29.56,29.56,0,0,0,635.19,133.5Zm14.15,8.28a7.58,7.58,0,0,1,3.32.42c.41.29.61,1.05.61,2.28H635.43a5.11,5.11,0,0,1,.24-1.91,1.17,1.17,0,0,1,.76-.65,12.28,12.28,0,0,1,2.37-.14Z"/><path class="cls-1" d="M639.09,160.09a2.19,2.19,0,0,0-1.07.44,2.16,2.16,0,0,0-.73.95,3.42,3.42,0,0,0-.25,1.35,3.5,3.5,0,0,0,.26,1.38,2.2,2.2,0,0,0,1.81,1.35,18.49,18.49,0,0,0,2,.07h1.59a18.56,18.56,0,0,0,2-.07,2.17,2.17,0,0,0,1.07-.43,2.2,2.2,0,0,0,.73-1,3.37,3.37,0,0,0,.25-1.34,3.43,3.43,0,0,0-.26-1.38,2.27,2.27,0,0,0-.74-.95,2.23,2.23,0,0,0-1.08-.41c-.38,0-1.05-.07-2-.07h-1.59C640.14,160,639.47,160.05,639.09,160.09Zm4.84,2.36a4.35,4.35,0,0,1,1,.07.34.34,0,0,1,0,.62,3.94,3.94,0,0,1-1,.07h-4.35a2.26,2.26,0,0,1-.87-.1.34.34,0,0,1-.15-.29.29.29,0,0,1,.18-.3,2.87,2.87,0,0,1,.84-.07Z"/><polygon class="cls-1" points="646.57 159.25 646.57 156.96 642.65 156.96 642.65 155.55 640.88 155.55 640.88 156.96 639.1 156.96 639.1 155.38 637.24 155.38 637.24 159.25 646.57 159.25"/><path class="cls-1" d="M651.26,63.33h0a1.91,1.91,0,0,0-1.86-1.49,1.81,1.81,0,0,0-1.58.7,4,4,0,0,0-.57,2.37,13.73,13.73,0,0,0,.18,2.15H655V65.85h-3.28V65a1.43,1.43,0,0,1,1.33-1.64,5.64,5.64,0,0,0,2-.51V61.57a6.52,6.52,0,0,1-1.89.49C652,62.2,651.39,62.67,651.26,63.33ZM650.79,65v.87H648.2a6.09,6.09,0,0,1-.06-.87c0-1.38.67-1.86,1.34-1.86C650.42,63.12,650.79,64,650.79,65Z"/><path class="cls-1" d="M644.18,64.54v0A6.86,6.86,0,1,0,651,57.83,6.8,6.8,0,0,0,644.18,64.57Zm12.66,0a5.8,5.8,0,0,1-11.59,0v0a5.81,5.81,0,0,1,11.59,0Z"/><path d="M0,127.26V260.17s13.6-2.29,26.35-4V207.71c5.28-.45,10.68-.91,16-1.33,4.29,16.14,8.14,30.48,12.42,46.23,0,0,12.49-1.42,26.15-2.66-4.28-15.44-8.2-29.74-12.48-45.52,4.32-4.32,8.66-8.5,13-12.71V139.26c-4.31-3.93-8.52-8-12.83-12Zm55.05,50.81c-1,1-2.09,2.26-3.06,3.3-8.5.44-16.92.9-25.41,1.41V152.43c8.5-.23,16.93-.45,25.43-.65,1,.9,2.06,1.88,3,2.77C55.05,154.55,55.06,170.16,55.05,178.07Zm178.12-50.81c-10.55,38.59-21.1,76.94-31.71,115.66,0,0,18.31-.31,26.63-.23,7.38-29.17,14.69-58,22-87.26q7.55,29.88,15.09,60-15-.34-29.9-.46c12.33,9.46,36.46,28.48,36.46,28.49,12.15.4,27,1.08,27,1.08C288.15,204.7,277.65,166.08,267,127.26ZM334,224.65V127.26H307.22V244.88c29.5,1.2,64.72,4.61,64.72,4.61-2-8.07-3.72-14.72-5.75-22.71C355.5,225.94,344.73,225.31,334,224.65ZM457.3,191.32q-6.46-7-12.93-13.72-18.57-1-37.15-1.93c-1.05-1-2-2-3.09-3V154.79c1.05-1,2-2,3-3q10.14.24,20.26.51c1.05,1,2,2.11,3.05,3.16V164c8.91.35,17.91.62,26.82,1V127.26H390.41c-4.31,4-8.55,8.06-12.86,12v46.81c4.33,4.2,8.68,8.52,13,12.82,12.32.8,24.57,1.74,36.87,2.71,1.05,1.09,2.25,2.19,3.3,3.29,0,8.37,0,25.17,0,25.17-1.05.9-2.15,1.68-3.19,2.58q-10.11-1.14-20.22-2.16c-1-1.09-2.13-2.15-3.18-3.24v-16c-8.83-.71-17.73-1.5-26.58-2.12v30.35c4.33,4.4,7.13,7.12,11.45,11.64,32.67,2.84,68.3,8.94,68.3,8.94ZM92.21,248.88s13.63-1.26,26.35-2.12V127.26H92.21ZM196.57,127.26q-11.08,40.45-22.2,81.34-11-40.4-22-81.34H125.85C136.33,167,146.78,205.8,157.3,244.42c0,0,17.34-.78,33.91-1.21,10.63-39,21.33-77.38,31.9-115.95ZM0,127.26V260.17s13.6-2.29,26.35-4V207.71c5.28-.45,10.68-.91,16-1.33,4.29,16.14,8.14,30.48,12.42,46.23,0,0,12.49-1.42,26.15-2.66-4.28-15.44-8.2-29.74-12.48-45.52,4.32-4.32,8.66-8.5,13-12.71V139.26c-4.31-3.93-8.52-8-12.83-12Zm55.05,50.81c-1,1-2.09,2.26-3.06,3.3-8.5.44-16.92.9-25.41,1.41V152.43c8.5-.23,16.93-.45,25.43-.65,1,.9,2.06,1.88,3,2.77C55.05,154.55,55.06,170.16,55.05,178.07Zm178.12-50.81c-10.55,38.59-21.1,76.94-31.71,115.66,0,0,18.31-.31,26.63-.23,7.38-29.17,14.69-58,22-87.26q7.55,29.88,15.09,60-15-.34-29.9-.46c12.33,9.46,36.46,28.48,36.46,28.49,12.15.4,27,1.08,27,1.08C288.15,204.7,277.65,166.08,267,127.26ZM334,224.65V127.26H307.22V244.88c29.5,1.2,64.72,4.61,64.72,4.61-2-8.07-3.72-14.72-5.75-22.71C355.5,225.94,344.73,225.31,334,224.65ZM457.3,191.32q-6.46-7-12.93-13.72-18.57-1-37.15-1.93c-1.05-1-2-2-3.09-3V154.79c1.05-1,2-2,3-3q10.14.24,20.26.51c1.05,1,2,2.11,3.05,3.16V164c8.91.35,17.91.62,26.82,1V127.26H390.41c-4.31,4-8.55,8.06-12.86,12v46.81c4.33,4.2,8.68,8.52,13,12.82,12.32.8,24.57,1.74,36.87,2.71,1.05,1.09,2.25,2.19,3.3,3.29,0,8.37,0,25.17,0,25.17-1.05.9-2.15,1.68-3.19,2.58q-10.11-1.14-20.22-2.16c-1-1.09-2.13-2.15-3.18-3.24v-16c-8.83-.71-17.73-1.5-26.58-2.12v30.35c4.33,4.4,7.13,7.12,11.45,11.64,32.67,2.84,68.3,8.94,68.3,8.94ZM92.21,248.88s13.63-1.26,26.35-2.12V127.26H92.21ZM196.57,127.26q-11.08,40.45-22.2,81.34-11-40.4-22-81.34H125.85C136.33,167,146.78,205.8,157.3,244.42c0,0,17.34-.78,33.91-1.21,10.63-39,21.33-77.38,31.9-115.95Zm-67-64.92V82.57H112v4.94h17.64v19.76H102.19l-10-10V44.93H112V62.34Zm74.34,0v44.93H144.27l-10-10V62.34h20.23V87.27h4.94V62.34h19.76V87.27h4.94V62.34Zm25.17,0v44.93h-20V62.34Zm0-17.41V57.4h-20V44.93Zm87.27,17.41V82.57h-20v4.94h20v19.76h-30l-10-10v-25l10-10Zm49.87,10v35h-20V82.33h-4.94v24.94h-20V44.93h20V62.34h15Zm-94.8-10V82.57H254.05v4.94h17.41v19.76H244l-10-10V44.93h20V62.34Z"/></g></g></svg>